<svg width="20" height="21" viewBox="0 0 20 21" fill="none" xmlns="http://www.w3.org/2000/svg">
<path d="M10 0.925293C4.478 0.925293 0 5.40329 0 10.9253C0 16.4473 4.478 20.9253 10 20.9253C15.522 20.9253 20 16.4473 20 10.9253C20 5.40329 15.522 0.925293 10 0.925293ZM15.7076 13.2927C15.6798 13.904 15.5826 14.3213 15.4407 14.6866C15.1424 15.4579 14.5326 16.0677 13.7613 16.366C13.3961 16.5079 12.9787 16.6049 12.3676 16.6328C11.7552 16.6608 11.5596 16.6675 10.0002 16.6675C8.44055 16.6675 8.24509 16.6608 7.6326 16.6328C7.02148 16.6049 6.604 16.5079 6.23886 16.366C5.85556 16.2218 5.50858 15.9958 5.22171 15.7036C4.92966 15.4169 4.70367 15.0697 4.55948 14.6866C4.41757 14.3214 4.32037 13.904 4.2926 13.2928C4.26437 12.6804 4.25781 12.4847 4.25781 10.9253C4.25781 9.36584 4.26437 9.17023 4.29245 8.55789C4.32022 7.94662 4.41727 7.5293 4.55917 7.164C4.70337 6.78085 4.9295 6.43372 5.22171 6.147C5.50842 5.8548 5.85556 5.62881 6.23871 5.48462C6.604 5.34271 7.02133 5.24567 7.6326 5.21774C8.24493 5.18982 8.44055 5.18311 10 5.18311C11.5594 5.18311 11.7551 5.18982 12.3674 5.2179C12.9787 5.24567 13.396 5.34271 13.7613 5.48447C14.1444 5.62866 14.4916 5.8548 14.7784 6.147C15.0705 6.43387 15.2966 6.78085 15.4407 7.164C15.5827 7.5293 15.6798 7.94662 15.7077 8.55789C15.7356 9.17023 15.7422 9.36584 15.7422 10.9253C15.7422 12.4847 15.7356 12.6804 15.7076 13.2927Z" fill="white"/>
</svg>
